# xmcd CD database file
#
# Track frame offsets:
#	182
#	7702
#	16577
#	35420
#	46865
#	61557
#	74490
#	89267
#	105595
#	116675
#	128240
#	146950
#	162632
#
# Disc length: 2341 seconds
#
# Revision: 2
# Processed by: cddbd v1.5.2PL0 Copyright (c) Steve Scherf et al.
# Submitted via: CDex 1.70beta2
#
DISCID=a309230d
DTITLE=Varios - Grandes del Jazz vol. 1
DYEAR=1995
DGENRE=Jazz
TTITLE0=Frank Sinatra - After I Say I'm Sorry
TTITLE1=Ella Fitzgerald - Lover Come Back To Me
TTITLE2=Miles Davis - Out Of Nowhere
TTITLE3=Louis Amstrong - When The Saints Go Marching In
TTITLE4=Woody Herman - The Blues And Brewing
TTITLE5=Jimmy Lucenford - Chopin Prelude
TTITLE6=Herb Jeffries - Devil Is A Woman
TTITLE7=Chick Corea - Marjoun
TTITLE8=Ella Fitzgerald - That Old Black Magic
TTITLE9=Artie Shaw - Oh Look At There! Ain't She Pretty
TTITLE10=Mahalia Jackson - A City Called Heaven
TTITLE11=B. B. King - Lonely Nights
TTITLE12=Sara Vaughan - That Old Black Magic
EXTD=YEAR: 1995
EXTT0=
EXTT1=
EXTT2=
EXTT3=
EXTT4=
EXTT5=
EXTT6=
EXTT7=
EXTT8=
EXTT9=
EXTT10=
EXTT11=
EXTT12=
PLAYORDER=
